<?xml version="1.0" encoding="utf-8"?>
<!-- Generator: Adobe Illustrator 21.0.0, SVG Export Plug-In . SVG Version: 6.00 Build 0)  -->
<svg version="1.1" id="Layer_1" xmlns="http://www.w3.org/2000/svg" xmlns:xlink="http://www.w3.org/1999/xlink" x="0px" y="0px"
	 viewBox="0 0 713.1 714.5" style="enable-background:new 0 0 713.1 714.5;" xml:space="preserve">
<style type="text/css">
	.st0{fill:url(#SVGID_1_);}
	.st1{fill:url(#SVGID_2_);}
	.st2{fill:url(#SVGID_3_);}
	.st3{fill:url(#SVGID_4_);}
	.st4{fill:url(#SVGID_5_);}
	.st5{fill:url(#SVGID_6_);}
	.st6{fill:url(#SVGID_7_);}
	.st7{fill:url(#SVGID_8_);}
	.st8{fill:url(#SVGID_9_);}
	.st9{fill:url(#SVGID_10_);}
	.st10{fill:url(#SVGID_11_);}
	.st11{fill:url(#SVGID_12_);}
	.st12{fill:url(#SVGID_13_);}
	.st13{fill:url(#SVGID_14_);}
	.st14{fill:url(#SVGID_15_);}
	.st15{fill:url(#SVGID_16_);}
	.st16{fill:url(#SVGID_17_);}
	.st17{fill:url(#SVGID_18_);}
	.st18{opacity:0.29;fill:url(#SVGID_19_);}
	.st19{opacity:0.52;fill:url(#SVGID_20_);}
	.st20{fill:url(#SVGID_21_);}
	.st21{fill:url(#SVGID_22_);}
	.st22{fill:url(#SVGID_23_);}
	.st23{fill:url(#SVGID_24_);}
	.st24{fill:url(#SVGID_25_);}
	.st25{fill:url(#SVGID_26_);}
	.st26{fill:url(#SVGID_27_);}
	.st27{fill:url(#SVGID_28_);}
</style>
<g>
	
		<linearGradient id="SVGID_1_" gradientUnits="userSpaceOnUse" x1="-35.5414" y1="238.2617" x2="-146.6366" y2="380.4637" gradientTransform="matrix(0.7071 0.7071 -0.7071 0.7071 401.9359 -38.0002)">
		<stop  offset="0" style="stop-color:#7CC4F4"/>
		<stop  offset="0.5422" style="stop-color:#73B0F4"/>
		<stop  offset="1" style="stop-color:#699BF4"/>
	</linearGradient>
	<polygon class="st0" points="204.9,8.3 20.2,0 73.3,250.4 297.3,183.9 	"/>
	
		<linearGradient id="SVGID_2_" gradientUnits="userSpaceOnUse" x1="410.7579" y1="306.4272" x2="737.1444" y2="306.4272" gradientTransform="matrix(0.7098 0.7044 -0.7044 0.7098 400.9056 -40.2365)">
		<stop  offset="0" style="stop-color:#3872D6"/>
		<stop  offset="0.3699" style="stop-color:#3268DD"/>
		<stop  offset="0.9881" style="stop-color:#224FEF"/>
		<stop  offset="1" style="stop-color:#224EEF"/>
	</linearGradient>
	<polygon class="st1" points="704.2,507 713.1,691.6 463.5,639.1 528.4,414.4 	"/>
	
		<linearGradient id="SVGID_3_" gradientUnits="userSpaceOnUse" x1="728.5141" y1="311.1464" x2="547.7725" y2="267.8919" gradientTransform="matrix(0.7098 0.7044 -0.7044 0.7098 400.9056 -40.2365)">
		<stop  offset="0" style="stop-color:#3872D6"/>
		<stop  offset="0.3699" style="stop-color:#3268DD"/>
		<stop  offset="0.9881" style="stop-color:#224FEF"/>
		<stop  offset="1" style="stop-color:#224EEF"/>
	</linearGradient>
	<polygon class="st2" points="704.2,507 687.2,498 556,658.5 713.1,691.6 	"/>
	
		<linearGradient id="SVGID_4_" gradientUnits="userSpaceOnUse" x1="586.2192" y1="352.7179" x2="455.6391" y2="208.2881" gradientTransform="matrix(0.7071 0.7071 -0.7071 0.7071 401.9359 -38.0002)">
		<stop  offset="0" style="stop-color:#3872D6"/>
		<stop  offset="0.3699" style="stop-color:#3268DD"/>
		<stop  offset="0.9881" style="stop-color:#224FEF"/>
		<stop  offset="1" style="stop-color:#224EEF"/>
	</linearGradient>
	<polygon class="st3" points="529.3,414.9 494,535.4 652,480.1 	"/>
	
		<radialGradient id="SVGID_5_" cx="430.4738" cy="419.8435" r="387.582" gradientTransform="matrix(0.7071 0.7071 -0.7071 0.7071 401.9359 -38.0002)" gradientUnits="userSpaceOnUse">
		<stop  offset="0" style="stop-color:#52F7FA"/>
		<stop  offset="1" style="stop-color:#456FFF"/>
	</radialGradient>
	<polygon class="st4" points="73.3,250.4 268.4,444.8 463.5,639.3 496.4,527.1 529.3,414.9 413.3,299.4 297.3,183.9 185.3,217.1 	
		"/>
	
		<linearGradient id="SVGID_6_" gradientUnits="userSpaceOnUse" x1="246.7092" y1="430.876" x2="270.4229" y2="820.1737" gradientTransform="matrix(0.7071 0.7071 -0.7071 0.7071 401.9359 -38.0002)">
		<stop  offset="5.376340e-03" style="stop-color:#0D61D1"/>
		<stop  offset="0.2905" style="stop-color:#166DE2"/>
		<stop  offset="0.7032" style="stop-color:#207AF4"/>
		<stop  offset="1" style="stop-color:#237FFA"/>
	</linearGradient>
	<polygon class="st5" points="73.3,250.4 463.5,639.3 0,713 	"/>
	
		<radialGradient id="SVGID_7_" cx="252.4096" cy="347.1341" r="451.9756" gradientTransform="matrix(0.7071 0.7071 -0.7071 0.7071 401.9359 -38.0002)" gradientUnits="userSpaceOnUse">
		<stop  offset="0" style="stop-color:#52F7FA"/>
		<stop  offset="1" style="stop-color:#456FFF"/>
	</radialGradient>
	<polygon class="st6" points="73.3,250.4 463.5,639.3 0,713 	"/>
	
		<linearGradient id="SVGID_8_" gradientUnits="userSpaceOnUse" x1="-156.7135" y1="342.1239" x2="110.9697" y2="653.9878" gradientTransform="matrix(0.7071 0.7071 -0.7071 0.7071 401.9359 -38.0002)">
		<stop  offset="5.376340e-03" style="stop-color:#004294"/>
		<stop  offset="0.2543" style="stop-color:#0048A2"/>
		<stop  offset="0.6881" style="stop-color:#0050B4"/>
		<stop  offset="1" style="stop-color:#0053BA"/>
	</linearGradient>
	<polygon class="st7" points="20.2,0 0,713 73.3,250.4 	"/>
	
		<linearGradient id="SVGID_9_" gradientUnits="userSpaceOnUse" x1="649.4118" y1="346.9924" x2="399.9228" y2="627.6679" gradientTransform="matrix(0.7098 0.7044 -0.7044 0.7098 400.9056 -40.2365)">
		<stop  offset="0" style="stop-color:#1837C7"/>
		<stop  offset="0.1997" style="stop-color:#1634BF"/>
		<stop  offset="0.5076" style="stop-color:#102CAA"/>
		<stop  offset="0.8835" style="stop-color:#071E86"/>
		<stop  offset="1" style="stop-color:#04197A"/>
	</linearGradient>
	<polygon class="st8" points="713.1,691.6 0.2,714.5 463.5,639.1 	"/>
	
		<linearGradient id="SVGID_10_" gradientUnits="userSpaceOnUse" x1="-106.6074" y1="173.5254" x2="600.2839" y2="173.5254" gradientTransform="matrix(0.7071 0.7071 -0.7071 0.7071 401.9359 -38.0002)">
		<stop  offset="0" style="stop-color:#B8DEE1"/>
		<stop  offset="0.2152" style="stop-color:#AED9E5"/>
		<stop  offset="0.5759" style="stop-color:#94CCEF"/>
		<stop  offset="1" style="stop-color:#6EB9FF"/>
	</linearGradient>
	<polygon class="st9" points="619.3,343.6 704.7,508.1 529.3,414.9 297.3,183.9 204.9,8.3 369.4,93.7 	"/>
	
		<linearGradient id="SVGID_11_" gradientUnits="userSpaceOnUse" x1="44.6" y1="160.9548" x2="632.2117" y2="170.8472" gradientTransform="matrix(0.7071 0.7071 -0.7071 0.7071 401.9359 -38.0002)">
		<stop  offset="0" style="stop-color:#B8DEE1"/>
		<stop  offset="0.2152" style="stop-color:#AED9E5"/>
		<stop  offset="0.5759" style="stop-color:#94CCEF"/>
		<stop  offset="1" style="stop-color:#6EB9FF"/>
	</linearGradient>
	<polygon class="st10" points="369.4,93.7 204.9,8.3 258.7,110.5 404.2,128.6 	"/>
	
		<linearGradient id="SVGID_12_" gradientUnits="userSpaceOnUse" x1="44.448" y1="169.978" x2="632.0595" y2="179.8705" gradientTransform="matrix(0.7071 0.7071 -0.7071 0.7071 401.9359 -38.0002)">
		<stop  offset="0" style="stop-color:#B8DEE1"/>
		<stop  offset="0.2152" style="stop-color:#AED9E5"/>
		<stop  offset="0.5759" style="stop-color:#94CCEF"/>
		<stop  offset="1" style="stop-color:#6EB9FF"/>
	</linearGradient>
	<polygon class="st11" points="491.3,215.6 351.8,238.1 462.6,348.4 560.4,284.8 	"/>
	
		<linearGradient id="SVGID_13_" gradientUnits="userSpaceOnUse" x1="44.4998" y1="166.9348" x2="632.1108" y2="176.8273" gradientTransform="matrix(0.7071 0.7071 -0.7071 0.7071 401.9359 -38.0002)">
		<stop  offset="0" style="stop-color:#B8DEE1"/>
		<stop  offset="0.2152" style="stop-color:#AED9E5"/>
		<stop  offset="0.5759" style="stop-color:#94CCEF"/>
		<stop  offset="1" style="stop-color:#6EB9FF"/>
	</linearGradient>
	<polygon class="st12" points="704.7,508.1 619.3,343.6 592.6,316.9 525.9,411.5 529.3,414.9 	"/>
	
		<linearGradient id="SVGID_14_" gradientUnits="userSpaceOnUse" x1="195.3955" y1="484.574" x2="21.2883" y2="328.2732" gradientTransform="matrix(0.7071 0.7071 -0.7071 0.7071 401.9359 -38.0002)">
		<stop  offset="0" style="stop-color:#FFFFFF"/>
		<stop  offset="0.2675" style="stop-color:#FCFCFF"/>
		<stop  offset="0.4918" style="stop-color:#F1F4FF"/>
		<stop  offset="0.7004" style="stop-color:#E0E7FF"/>
		<stop  offset="0.8985" style="stop-color:#C8D4FF"/>
		<stop  offset="1" style="stop-color:#B8C8FF"/>
	</linearGradient>
	<polygon class="st13" points="297.3,183.9 268.4,444.8 73.3,250.4 	"/>
	
		<linearGradient id="SVGID_15_" gradientUnits="userSpaceOnUse" x1="380.6072" y1="448.9296" x2="443.919" y2="245.1453" gradientTransform="matrix(0.7071 0.7071 -0.7071 0.7071 401.9359 -38.0002)">
		<stop  offset="0" style="stop-color:#FFFFFF"/>
		<stop  offset="0.2675" style="stop-color:#FCFCFF"/>
		<stop  offset="0.4918" style="stop-color:#F1F4FF"/>
		<stop  offset="0.7004" style="stop-color:#E0E7FF"/>
		<stop  offset="0.8985" style="stop-color:#C8D4FF"/>
		<stop  offset="1" style="stop-color:#B8C8FF"/>
	</linearGradient>
	<polygon class="st14" points="529.3,414.9 268.4,444.8 463.5,639.3 	"/>
	
		<linearGradient id="SVGID_16_" gradientUnits="userSpaceOnUse" x1="3.4364" y1="423.1395" x2="500.0371" y2="326.1936" gradientTransform="matrix(0.7071 0.7071 -0.7071 0.7071 401.9359 -38.0002)">
		<stop  offset="0" style="stop-color:#FFFFFF"/>
		<stop  offset="0.2675" style="stop-color:#FCFCFF"/>
		<stop  offset="0.4918" style="stop-color:#F1F4FF"/>
		<stop  offset="0.7004" style="stop-color:#E0E7FF"/>
		<stop  offset="0.8985" style="stop-color:#C8D4FF"/>
		<stop  offset="1" style="stop-color:#B8C8FF"/>
	</linearGradient>
	<polygon class="st15" points="73.3,250.4 529.3,414.9 463.5,639.3 	"/>
	
		<linearGradient id="SVGID_17_" gradientUnits="userSpaceOnUse" x1="-51.2761" y1="272.8742" x2="-142.2866" y2="373.7772" gradientTransform="matrix(0.7071 0.7071 -0.7071 0.7071 401.9359 -38.0002)">
		<stop  offset="0" style="stop-color:#FFFFFF"/>
		<stop  offset="0.2675" style="stop-color:#FCFCFF"/>
		<stop  offset="0.4918" style="stop-color:#F1F4FF"/>
		<stop  offset="0.7004" style="stop-color:#E0E7FF"/>
		<stop  offset="0.8985" style="stop-color:#C8D4FF"/>
		<stop  offset="1" style="stop-color:#B8C8FF"/>
	</linearGradient>
	<polygon class="st16" points="204.9,8.3 73.3,250.4 20.2,0 	"/>
	
		<linearGradient id="SVGID_18_" gradientUnits="userSpaceOnUse" x1="-106.0621" y1="139.651" x2="487.7664" y2="149.6481" gradientTransform="matrix(0.7071 0.7071 -0.7071 0.7071 401.9359 -38.0002)">
		<stop  offset="0" style="stop-color:#CDE0E1"/>
		<stop  offset="0.2197" style="stop-color:#C3DCE5"/>
		<stop  offset="0.5878" style="stop-color:#A9D2F0"/>
		<stop  offset="1" style="stop-color:#85C4FF"/>
	</linearGradient>
	<polygon class="st17" points="204.9,8.3 650.4,403.6 619.3,343.6 369.4,93.7 	"/>
	
		<linearGradient id="SVGID_19_" gradientUnits="userSpaceOnUse" x1="125.2319" y1="846.1605" x2="89.6153" y2="338.6262" gradientTransform="matrix(0.7071 0.7071 -0.7071 0.7071 401.9359 -38.0002)">
		<stop  offset="5.376340e-03" style="stop-color:#0D61D1"/>
		<stop  offset="0.2905" style="stop-color:#166DE2"/>
		<stop  offset="0.7032" style="stop-color:#207AF4"/>
		<stop  offset="1" style="stop-color:#237FFA"/>
	</linearGradient>
	<polygon class="st18" points="0.2,714.5 187.1,363.8 73.3,250.4 	"/>
	
		<linearGradient id="SVGID_20_" gradientUnits="userSpaceOnUse" x1="399.3925" y1="826.921" x2="363.776" y2="319.3892" gradientTransform="matrix(0.7071 0.7071 -0.7071 0.7071 401.9359 -38.0002)">
		<stop  offset="0" style="stop-color:#0E67DE"/>
		<stop  offset="0.2503" style="stop-color:#1C73E8"/>
		<stop  offset="0.6864" style="stop-color:#2E83F5"/>
		<stop  offset="1" style="stop-color:#3489FA"/>
	</linearGradient>
	<polygon class="st19" points="0.2,714.5 463.5,639.3 332.9,509.1 	"/>
	
		<linearGradient id="SVGID_21_" gradientUnits="userSpaceOnUse" x1="404.8289" y1="188.3964" x2="598.7211" y2="134.9772" gradientTransform="matrix(0.7071 0.7071 -0.7071 0.7071 401.9359 -38.0002)">
		<stop  offset="0" style="stop-color:#ADC3F0"/>
		<stop  offset="0.4505" style="stop-color:#80A4F0"/>
		<stop  offset="0.7988" style="stop-color:#6391F0"/>
		<stop  offset="1" style="stop-color:#598AF0"/>
	</linearGradient>
	<path class="st20" d="M704.7,508.1c-14.9-7.3-29.6-14.8-44.4-22.2c-14.8-7.4-29.5-15-44.2-22.5L572,440.7l-44-23l-0.4-0.2l-0.3-0.3
		c-19.3-19.3-38.8-38.3-58-57.7l-57.6-58.1c-9.6-9.7-19.1-19.5-28.7-29.2l-28.6-29.3c-9.6-9.7-19-19.6-28.4-29.4
		c-9.5-9.8-18.9-19.7-28.3-29.6c9.9,9.4,19.8,18.8,29.6,28.3c9.8,9.5,19.7,18.9,29.4,28.4l29.3,28.6c9.8,9.5,19.6,19,29.2,28.7
		l58.1,57.6c19.4,19.2,38.5,38.7,57.7,58l-0.6-0.5l43.8,23.4l43.6,23.7c14.5,7.9,29.1,15.8,43.5,23.9
		C675.9,492,690.4,499.9,704.7,508.1z"/>
	
		<linearGradient id="SVGID_22_" gradientUnits="userSpaceOnUse" x1="54.2064" y1="374.8877" x2="324.2705" y2="757.7252" gradientTransform="matrix(0.7071 0.7071 -0.7071 0.7071 401.9359 -38.0002)">
		<stop  offset="0" style="stop-color:#ADC3F0"/>
		<stop  offset="0.4505" style="stop-color:#80A4F0"/>
		<stop  offset="0.7988" style="stop-color:#6391F0"/>
		<stop  offset="1" style="stop-color:#598AF0"/>
	</linearGradient>
	<path class="st21" d="M0,713l3.8-29.1l3.9-29c2.6-19.4,5.3-38.7,8-58.1l8.4-58l8.7-58c2.9-19.3,5.8-38.6,8.9-57.9l9.1-57.9
		c6.2-38.6,12.3-77.2,18.8-115.7l0.4-2.5l2.4-0.7c18.7-5.4,37.4-10.8,56.2-16l56.3-15.8c18.8-5.2,37.6-10.4,56.4-15.4l28.2-7.6
		l28.3-7.5l-27.8,9.1l-27.8,8.9c-18.5,6-37.1,11.9-55.7,17.7l-55.8,17.3c-18.6,5.8-37.3,11.4-55.9,17l2.8-3.2
		c-5.8,38.6-11.9,77.2-17.9,115.8l-9.3,57.9c-3.1,19.3-6.3,38.6-9.5,57.8L31,539.9l-10,57.8c-3.3,19.3-6.8,38.5-10.3,57.7l-5.3,28.8
		L0,713z"/>
	
		<linearGradient id="SVGID_23_" gradientUnits="userSpaceOnUse" x1="494.5093" y1="558.8503" x2="439.1116" y2="501.4741" gradientTransform="matrix(0.7071 0.7071 -0.7071 0.7071 401.9359 -38.0002)">
		<stop  offset="0" style="stop-color:#ADC3F0"/>
		<stop  offset="0.4505" style="stop-color:#80A4F0"/>
		<stop  offset="0.7988" style="stop-color:#6391F0"/>
		<stop  offset="1" style="stop-color:#598AF0"/>
	</linearGradient>
	<path class="st22" d="M650.8,678.4c-20.8-4.8-41.5-9.4-62.3-14l-62.4-13.9c-19.9-4.5-39.8-8.7-59.8-13l31.4-109.6l15.9-56.2
		l15.7-56.3l-17.4,55.8L494.6,527l-32.7,107.8l-94.1-94.7c-16.1-16.3-32.5-32.4-48.7-48.6l-48.8-48.6
		c-16.3-16.2-32.5-32.4-48.9-48.5l-49.1-48.3c-16.3-16.1-32.7-32.2-49.2-48.2c-16.5-16-32.9-32-49.4-48c15.9,16.6,31.9,33,48,49.4
		c16,16.5,32.1,32.9,48.2,49.2l48.3,49.1c16.1,16.4,32.3,32.6,48.5,48.9l48.6,48.8c16.2,16.3,32.3,32.6,48.7,48.7l94,93.5L346.9,655
		l-115.7,18.7c-19.3,3.1-38.6,6.3-57.8,9.5l-57.8,9.7c-19.3,3.2-38.5,6.5-57.8,9.9C38.5,706.2,19.2,709.5,0,713
		c19.4-2.6,38.7-5.4,58-8.2c19.3-2.8,38.7-5.5,58-8.5l58-8.7c19.3-2.9,38.6-5.8,57.9-8.8l115.8-18L463,642.2
		c20.7,4.3,41.3,8.8,62.1,12.9l62.6,12.8c20.9,4.3,41.7,8.5,62.6,12.6c20.9,4.1,41.8,8.3,62.7,12.3
		C692.3,687.9,671.5,683.2,650.8,678.4z"/>
	
		<linearGradient id="SVGID_24_" gradientUnits="userSpaceOnUse" x1="-20.1643" y1="369.8817" x2="476.4361" y2="376.8064" gradientTransform="matrix(0.7071 0.7071 -0.7071 0.7071 401.9359 -38.0002)">
		<stop  offset="0" style="stop-color:#ADC3F0"/>
		<stop  offset="0.4505" style="stop-color:#80A4F0"/>
		<stop  offset="0.7988" style="stop-color:#6391F0"/>
		<stop  offset="1" style="stop-color:#598AF0"/>
	</linearGradient>
	<path class="st23" d="M20.2,0l7.5,31.1l7.3,31.1l7.3,31.1c2.5,10.4,4.7,20.8,7.1,31.1l14.1,62.3l7,31.2l6.9,31.2l-1.1-1.9l49,48.4
		l48.8,48.6l48.6,48.8l48.5,48.9c16.1,16.3,32.3,32.6,48.3,49.1l48.1,49.3l24.1,24.6l23.9,24.8l23.9,24.8l23.7,25l-25-23.7
		l-24.8-23.9L388.5,568L363.8,544l-49.3-48.1c-16.5-16-32.7-32.2-49.1-48.3l-48.9-48.5l-48.8-48.6l-48.6-48.8l-48.4-49l-0.8-0.8
		l-0.2-1.1l-6.4-31.3L57,188.1l-12.6-62.6c-2.1-10.4-4.2-20.9-6.2-31.3l-6-31.4l-6-31.4L20.2,0z"/>
	
		<linearGradient id="SVGID_25_" gradientUnits="userSpaceOnUse" x1="13.7523" y1="189.7157" x2="263.0421" y2="391.5218" gradientTransform="matrix(0.7071 0.7071 -0.7071 0.7071 401.9359 -38.0002)">
		<stop  offset="0" style="stop-color:#FFFFFF"/>
		<stop  offset="0.4402" style="stop-color:#D4DFF7"/>
		<stop  offset="0.795" style="stop-color:#B7CBF2"/>
		<stop  offset="1" style="stop-color:#ADC3F0"/>
	</linearGradient>
	<path class="st24" d="M501.7,385c-9.3-10-18.5-20-27.9-29.9c-9.3-9.9-18.7-19.9-28.2-29.7c-9.4-9.8-18.9-19.7-28.4-29.5l-28.6-29.3
		l-28.8-29.1c-9.6-9.7-19.3-19.3-29-28.9l-28-27.7l-11.6-21.7c-3.9-7.3-7.9-14.5-11.9-21.8l-11.9-21.8L255.2,94
		c-4-7.2-8.1-14.4-12.3-21.6c-4.1-7.2-8.2-14.4-12.4-21.5c-8.4-14.3-16.8-28.5-25.6-42.6c6.7,15.2,13.7,30.2,20.8,45.1
		c3.5,7.5,7.2,14.9,10.8,22.4c3.6,7.5,7.2,14.9,10.9,22.3l11,22.2l11.3,22.1c3.8,7.4,7.5,14.8,11.3,22.1l8.2,15.6
		c-7.1,2-14.2,4.1-21.2,6.3l-28,8.4c-9.3,2.8-18.6,5.7-27.9,8.6c-9.3,2.9-18.6,5.7-27.9,8.8l-27.8,9l-27.7,9.3L101,240
		c-9.2,3.3-18.4,6.5-27.5,10c9.5-2.1,19-4.3,28.5-6.6l28.4-7l28.3-7.3l28.2-7.5c9.4-2.5,18.8-5.2,28.2-7.8
		c9.4-2.6,18.8-5.2,28.1-7.9l28.1-8.1c8.3-2.4,16.6-4.9,24.9-7.4l26.3,26.5c9.6,9.7,19.2,19.4,28.9,29l29.1,28.8l29.3,28.6
		c9.7,9.6,19.6,19,29.5,28.4c9.8,9.5,19.7,18.9,29.7,28.2c9.9,9.4,19.9,18.7,29.9,27.9c10,9.3,20.1,18.4,30.3,27.5
		C520.2,405.1,511,395,501.7,385z"/>
	<g>
		
			<radialGradient id="SVGID_26_" cx="-121.0401" cy="128.8337" r="47.2139" gradientTransform="matrix(0 1 -1 0 421.9971 306.0268)" gradientUnits="userSpaceOnUse">
			<stop  offset="0" style="stop-color:#FFFFFF"/>
			<stop  offset="0.2191" style="stop-color:#B4B4B4"/>
			<stop  offset="0.427" style="stop-color:#747474"/>
			<stop  offset="0.6142" style="stop-color:#424242"/>
			<stop  offset="0.7771" style="stop-color:#1E1E1E"/>
			<stop  offset="0.9094" style="stop-color:#080808"/>
			<stop  offset="0.9946" style="stop-color:#000000"/>
		</radialGradient>
		<circle class="st25" cx="293.2" cy="185" r="47.2"/>
		
			<radialGradient id="SVGID_27_" cx="-122.706" cy="129.0761" r="52.6703" gradientTransform="matrix(0 1 -1 0 421.9971 306.0268)" gradientUnits="userSpaceOnUse">
			<stop  offset="0" style="stop-color:#FFFFFF"/>
			<stop  offset="9.075941e-02" style="stop-color:#F1F1F1"/>
			<stop  offset="0.2614" style="stop-color:#CDCDCD"/>
			<stop  offset="0.4938" style="stop-color:#939393"/>
			<stop  offset="0.7755" style="stop-color:#434343"/>
			<stop  offset="0.9946" style="stop-color:#000000"/>
		</radialGradient>
		<path class="st26" d="M284.2,195.2c4.5-2.8,10.4-2,13.9,2l34.5,38.8l-27.7-43.9c-2.8-4.5-2-10.4,2-13.9l38.8-34.5l-43.9,27.7
			c-4.5,2.8-10.4,2-13.9-2l-34.5-38.8l27.7,43.9c2.8,4.5,2,10.4-2,13.9l-38.8,34.5L284.2,195.2z"/>
	</g>
	
		<radialGradient id="SVGID_28_" cx="-53.2593" cy="340.5917" r="23.5708" gradientTransform="matrix(0 1 -1 0 421.9971 306.0268)" gradientUnits="userSpaceOnUse">
		<stop  offset="0" style="stop-color:#FFFFFF"/>
		<stop  offset="0.2191" style="stop-color:#B4B4B4"/>
		<stop  offset="0.427" style="stop-color:#747474"/>
		<stop  offset="0.6142" style="stop-color:#424242"/>
		<stop  offset="0.7771" style="stop-color:#1E1E1E"/>
		<stop  offset="0.9094" style="stop-color:#080808"/>
		<stop  offset="0.9946" style="stop-color:#000000"/>
	</radialGradient>
	<circle class="st27" cx="81.4" cy="252.8" r="23.6"/>
</g>
</svg>
